<svg xmlns="http://www.w3.org/2000/svg" width="128" height="128" viewBox="0 0 128 128"><path fill="#B1B1B1" d="M77.62 92.17c-.29 0-.55-.22-.59-.51l-.75-5.57a.595.595 0 1 1 1.18-.16l.75 5.57c.04.32-.18.62-.51.67zm-4.97-5.77l25.94-41.05c.17-.28.54-.36.82-.18c.28.17.36.54.18.82L78.44 79.46l37.15-34.24c.24-.22.61-.21.84.03c.22.24.21.61-.03.84L72.66 86.4z"/><path fill="#E59F1D" d="m106.94 31.95l12.6 12.54s-3.4 3.45-15.96 2.52c-12.01-.89-15.26-8.44-15.26-8.44l5.16-8.17z"/><path fill="#D2711F" d="m90.91 31.66l-3.52 4.49s.21 1.48.93 2.42s5.46 2.18 10.53 1.45c5.46-.78 10.19-2.49 9.96-5.86c-.11-1.63-17.89-2.5-17.89-2.5z"/><path fill="#02AEA8" d="m99.67 24.3l-21.41 4.37l1.45 3.68s5.41 4.2 11.52 4.83c6.01.62 14.89-1.28 17.69-4.37s-9.26-8.51-9.26-8.51z"/><path fill="#039BA1" d="M88.32 13.61s8.1-.96 12.96 1.31c2.82 1.32-10.89 11.82-10.89 11.82s-2.31 2.64-5.41 4.2s-5.26 1.4-5.26 1.4s-2.93-2.36-3.38-3.59s11.99-15.14 11.98-15.14"/><path fill="#B1B1B1" d="M75.55 83.51h-.05a.58.58 0 0 1-.54-.54l-2.49-27.58a.59.59 0 0 1 .47-.63l15.79-28.6c.14-.26.45-.37.73-.27c.28.11.43.4.36.69l-6.58 28.37l-7.12 28.11c-.07.26-.3.45-.57.45m-1.86-27.7l2.13 23.61l6.27-24.74l5.61-24.22L73.77 55.7s-.05.08-.08.11"/><path fill="#B1B1B1" d="M82.87 55.49c-.17 0-.34-.07-.46-.21a.59.59 0 0 1 .08-.83l23.44-19.4c.25-.21.62-.17.83.08s.17.63-.08.83l-23.44 19.4c-.11.09-.24.14-.38.14z"/><path fill="#15CB9B" d="m72.08 9.29l-7.16 19.87s7.41 3.08 13.68 2.04s11.21-5.13 11.63-9.88S72.08 9.29 72.08 9.29"/><path fill="#5E6367" d="M68.3 98.82s-6.85-9.1-6.22-10.17s7.05 9.16 7.05 9.16s-.19-.91.06-2.09c.19-.91.67-1.86 2.08-2.07c2.28-.33 2.86 2.26 2.86 2.26s-.61-10.97.03-10.96s.95 7.29.95 7.29s.93-6.56 1.37-6.42c.88.29-1.11 11.78-1.11 11.78l1.13 5.61s.24 1.04.63 1.83c.44.9-1.37 3.91-1.37 3.91s-1.09.82-2.02.23s-4.09-.44-4.09-.44s-2.59.37-3.21-3.56c-.61-3.84 1.04-4.1 1.04-4.1l.81-2.27z"/><path fill="#467CE0" d="M77.58 86.5s.32-3.45-2.67-4.75c-1.36-.59-3.67-.37-6.55.19c-6.02 1.17-6.49 2.14-7.38 4.1c-.63 1.37.83 3.27 1.04 3.44z"/><path fill="#B1B1B1" d="M62.05 88.97c-.09 0-.19-.02-.28-.07L10.51 61.45l.56-1.04L57.16 85.1L25.43 58.75l.76-.91l36.24 30.1c.23.19.28.53.11.79c-.11.17-.3.26-.49.26z"/><path fill="#B1B1B1" d="M62.97 90.64L33.95 51.06l.96-.7l25.06 34.19l-6.63-22.91l-15.89-19.38l.91-.75l16.05 19.56z"/><path fill="#B1B1B1" d="m53.2 61.47l-.59-33.23l9.83 29.86l-1.13.37l-7.38-22.42l.46 25.4z"/><path fill="#B1B1B1" d="M63.37 95.51c-.27 0-.52-.19-.58-.47l-1.37-6.56v-.06l-.1-30.58v-.06l7.92-37.47l4.43 35.15c.04.32-.19.62-.51.66a.59.59 0 0 1-.66-.51l-3.55-28.17l-6.44 30.52l.1 30.39l1.35 6.44c.07.32-.14.63-.46.7c-.04 0-.08.01-.13.02"/><path fill="#5E6367" d="m77.27 96.94l-.54-2.44s0-.36-.11-1.15s.06-1.41.73-1.51s.9.59 1.07 1.22c.1.35.18 1.17.18 1.17zm-12.08 2.21l.58-1.75s-.36-1.15-.67-1.71c-.27-.49-.67-.99-1.14-.89s-.78.92-.68 2.03c.09.95.25 1.17.25 1.17l1.65 1.14z"/><path fill="#E04537" d="M69.66 108.76s.26-1.65 1.78-1.78c1.1-.09 1.73.48 2.15 1.03c.85 1.09 1.63 1.97 1.8 2.35c.32.74.42 2.41.42 2.41l-2.18 1.29l-1.09-.8s-.05-.72-.22-1.4c-.08-.33-.87-.96-1.52-1.69c-.6-.68-1.16-1.39-1.16-1.39z"/><path fill="#B0B0B0" d="m79.95 114.61l-.03.09l-.97 3.13s.13 1.12.35 1.61c.51 1.14 3.31 1.48 3.85 1.07s-1.12-2.35-1.12-2.35l-.21-1.18l-1.88-2.38zm-5.14 2.9l-1.64 1.78s-.03.59.27 1.21c.33.68 1.76 1.91 2.83 1.55c.76-.26.09-3.46.09-3.46l-1.55-1.07z"/><path fill="#FFB803" d="M107.82 33.4s-2.56 2.06 2.92 7.5c7.05 6.99 9.68 3.59 11.6.29c2.73-4.68-.36-8.43-3.53-12.21c-3.86-4.6-8.41-4.04-8.41-4.04l-2.59 8.47z"/><path fill="#07D6B7" d="M95.98 14.82c-2.54.45-4.69 3.25-5.59 6.32s-.51 8.88 6.16 11.92c6.66 3.05 12.38 1.96 14.08-2.91s1.38-8.92-5.95-13.55c-4.01-2.54-6.1-2.24-8.7-1.78"/><path fill="#8BEAA9" d="M63.03 8.8s10.44-4.67 20.21-.07s7.91 9.91 6.98 12.6s-3.8 5.72-11.49 3.65c-7.68-2.07-8.21-6.21-8.21-6.21z"/><path fill="#467CE0" d="m52.59 11.54l-18.64 5.78s-2.35 2.41-3.03 4.85c-.68 2.45 22.35 9.98 22.35 9.98s11.67-.91 15.21-5.63c4.81-6.42 2.99-11.89 2.99-11.89z"/><path fill="#349EFE" d="M33.95 17.32s4.8-1.66 10.24-.3s10.16 5.86 10.16 5.86l13.61-6.64s2.24-.76 2.81-1.1c.42-.25.69-.51.69-.51s-2.49-8.2-17.71-6.5s-19.8 9.19-19.8 9.19"/><path fill="#CC26A1" d="m18.09 30.2l-3.94 4.2s-1.06 2.47-1.38 4.43s26.25 4.4 26.25 4.4s2.54.14 5.82-3.05c3.27-3.19 4.06-4.01 6.65-5.69s2.36-3.97 2.14-5.45s-1.13-2.96-1.13-2.96l-17.26-1.46l-17.15 5.59z"/><path fill="#F84AB2" d="M14.15 34.39s3.61-8.59 11.56-12.25s17.24-2.17 20.66-.85s6.13 4.77 6.13 4.77s-8.86 8.53-12.72 9.09s-8.78-2.17-15.9-2.56s-9.73 1.8-9.73 1.8"/><path fill="#FF706A" d="M17.39 43.61L3.35 53.22s1.33 5.84 6.5 8.12s12.56 2.44 17.14-.74c4.59-3.18 7.35-7.11 9-9.66s2.79-5.14 2.37-6.69s-4.03-5.78-6.84-6.39s-14.13 5.77-14.13 5.77z"/><path fill="#FF8984" d="M13.07 37.37s-5.05 1.44-8.3 8.36c-3.24 6.92-.7 8.77-.7 8.77s2.72 1.72 10.32 1.95c7.6.22 10.81-1.61 15.05-7.61c4.63-6.55 4.01-10.11 4.01-10.11s-2.64-2.16-10.29-2.71c-6.53-.47-10.1 1.35-10.1 1.35z"/><path fill="#A5146A" d="M41.11 29.5c-1.75 1.61-6.82 1.77-6.32 6.87c.45 4.57 5.12 5.54 7.69 3.42s1.91-3.88 3.5-5.03s2.81-.51 4.65-2s1.28-4.71.01-6.38s-4.55-2.33-6.6-.8c-2.04 1.53-1.21 2.33-2.93 3.92"/><path fill="#E34B44" d="M26.43 48.28c-.44 1.16-1.81 1.11-2.75 1.87c-1.25 1.02-1.91 2.97-.31 6.28c1.35 2.78 3.53 2.49 5.09.48c1.18-1.52 1.82-4.45 2.58-5.4c.83-1.03 2.86-1.95 4.13-3.47c1.42-1.72 1.91-4.09-.57-5.82s-4.97-1.11-6.33.71c-1.12 1.49-1.3 3.92-1.84 5.35"/><path fill="#164ACA" d="M61.16 16.63c-1.84.26-3.89-.98-6.39.31s-2.06 4.32-1.36 7.36s2.17 4.38 4.63 3.76s2.55-3.25 4.64-3.61s2.6.83 4.68-.07s3.3-2.68 2.59-6.74s-2.23-4.3-4.35-3.67s-2.48 2.37-4.45 2.65z"/><path fill="#0AAC81" d="M82.56 14.49c-.8-.3-1.74-1.67-3.27-2.21c-2.02-.72-4.69-.26-5.61 3.42c-.87 3.48.48 5.39 2.11 5.86c1.41.4 3.48-.21 4.73.26c1.14.43 2.01 1.53 3.54 1.77c2.1.32 4.32-.87 5.19-3.96c1.11-3.9-1.18-5.42-3.56-5.65c-1.16-.11-2.12.9-3.14.52z"/><path fill="#039BA1" d="M102.88 22.5c-.79-.7-1.38-2.16-2.64-2.97c-2.1-1.35-5.09-1.54-6.9 1.86c-1.7 3.18-.26 5.53 1.77 6.72c1.44.84 3.24.85 4.14 1.28c1.08.52 2.53 2.31 4.17 2.89s3.44-.06 4.9-2.24s1.26-4.78-.19-6s-3.56-.03-5.24-1.53z"/><path fill="#D2711F" d="M117.38 33.89c-.68-.64-.89-2.28-1.77-3.43c-1.14-1.48-3.05-2.22-4.92.24c-1.63 2.14-.94 4.5.33 5.58c1.31 1.12 3.25.96 3.88 1.79c1.24 1.63 2.8 6.43 6.09 2.28c1.4-1.77.84-3.82.06-4.7c-1.05-1.18-2.82-.95-3.67-1.76"/><path fill="#5E6367" d="M72.55 113.25s.6.1 1.81-.07c.99-.14 1.46-.41 1.46-.41l.56 6.02s-.35.44-1.31.6c-1.29.21-1.89-.09-1.89-.09z"/><path fill="#E04537" d="M75.77 108.96c.04.28 1.18 1.04 1.43 1.45s.75 1.63.75 1.63l2.81.15l.32-.72s-.27-1.39-.73-2.4c-.46-1.02-3.19-4.06-3.19-4.06s-.82 1.18-1.07 2.06c-.28.96-.3 1.89-.3 1.89zm.95-14.47s.47.14.94.09c.61-.07.94-.36.94-.36s.63 2.36-.09 3.83s-2.4 2.35-2.4 2.35l.4 2.81s-1.11-.86-1.44-3.62s1.11-2.06 1.41-2.83s.24-2.28.24-2.28zM65.77 97.4s-.52.25-1.02.43c-.65.23-1.22.17-1.22.17s.53 1.97 1.95 3.13c.83.68 1.4.66 2.02 1.21s.99 2.69 1.28 2.91c.52.39 1.59.19 1.69-.43s-.21-2.77-.58-3.8s-1.59-2.19-1.59-2.19s-1.4.25-1.81-.17s-.72-1.25-.72-1.26m6.18 3.54c.02.35.47 3.31.71 3.37s1.46-.27 1.46-.49s-.45-3.05-.59-3.32s-1.61.05-1.58.44"/><path fill="#5E6367" d="M77.95 112.04s1.17-.13 1.92-.25s1.21-.32 1.21-.32l.83 5.65s-.57.53-1.06.68s-1.9.03-1.9.03z"/></svg>